ffmpeg started on 2016-12-07 at 19:11:10
Report written to "Output/x264/results/ffmpeg/crowd_run_2160p50slower1000k.log"
Command line:
Tools/ffmpeg/ffmpeg -benchmark -y -i Input/y4m/crowd_run_2160p50.y4m -c:v libx264 -preset slower -b:v 1000k -an Output/x264/encoded/crowd_run_2160p50slower1000k.mkv
ffmpeg version N-82227-gdb23fde Copyright (c) 2000-2016 the FFmpeg developers
  built with gcc 5.4.0 (Ubuntu 5.4.0-6ubuntu1~16.04.2) 20160609
  configuration: --prefix=/home/jaroslav/ffmpeg_build --pkg-config-flags=--static --extra-cflags=-I/home/jaroslav/ffmpeg_build/include --extra-ldflags=-L/home/jaroslav/ffmpeg_build/lib --bindir=/home/jaroslav/bin --enable-gpl --enable-libass --enable-libfdk-aac --enable-libfreetype --enable-libmp3lame --enable-libopus --enable-libtheora --enable-libvorbis --enable-libvpx --enable-libx264 --enable-libx265 --enable-nvenc --enable-libmfx --enable-libxvid --enable-libgsm --enable-libopencore-amrnb --enable-version3 --enable-nonfree
  libavutil      55. 35.100 / 55. 35.100
  libavcodec     57. 66.101 / 57. 66.101
  libavformat    57. 57.100 / 57. 57.100
  libavdevice    57.  2.100 / 57.  2.100
  libavfilter     6. 66.100 /  6. 66.100
  libswscale      4.  3.100 /  4.  3.100
  libswresample   2.  4.100 /  2.  4.100
  libpostproc    54.  2.100 / 54.  2.100
Input #0, yuv4mpegpipe, from 'Input/y4m/crowd_run_2160p50.y4m':
  Duration: 00:00:10.00, start: 0.000000, bitrate: 4976642 kb/s
    Stream #0:0: Video: rawvideo (I420 / 0x30323449), yuv420p(progressive), 3840x2160, SAR 1:1 DAR 16:9, 50 fps, 50 tbr, 50 tbn, 50 tbc
[libx264 @ 0x2e631c0] using SAR=1/1
[libx264 @ 0x2e631c0] DPB size (8 frames, 259200 mbs) > level limit (5 frames, 184320 mbs)
[libx264 @ 0x2e631c0] using cpu capabilities: MMX2 SSE2Fast SSSE3 SSE4.2 AVX FMA3 AVX2 LZCNT BMI2
[libx264 @ 0x2e631c0] profile High, level 5.2
[libx264 @ 0x2e631c0] 264 - core 148 - H.264/MPEG-4 AVC codec - Copyleft 2003-2016 - http://www.videolan.org/x264.html - options: cabac=1 ref=8 deblock=1:0:0 analyse=0x3:0x133 me=umh subme=9 psy=1 psy_rd=1.00:0.00 mixed_ref=1 me_range=16 chroma_me=1 trellis=2 8x8dct=1 cqm=0 deadzone=21,11 fast_pskip=1 chroma_qp_offset=-2 threads=6 lookahead_threads=1 sliced_threads=0 nr=0 decimate=1 interlaced=0 bluray_compat=0 constrained_intra=0 bframes=3 b_pyramid=2 b_adapt=2 b_bias=0 direct=3 weightb=1 open_gop=0 weightp=2 keyint=250 keyint_min=25 scenecut=40 intra_refresh=0 rc_lookahead=60 rc=abr mbtree=1 bitrate=1000 ratetol=1.0 qcomp=0.60 qpmin=0 qpmax=69 qpstep=4 ip_ratio=1.40 aq=1:1.00
Output #0, matroska, to 'Output/x264/encoded/crowd_run_2160p50slower1000k.mkv':
  Metadata:
    encoder         : Lavf57.57.100
    Stream #0:0: Video: h264 (libx264) (H264 / 0x34363248), yuv420p, 3840x2160 [SAR 1:1 DAR 16:9], q=-1--1, 1000 kb/s, 50 fps, 1k tbn, 50 tbc
    Metadata:
      encoder         : Lavc57.66.101 libx264
    Side data:
      cpb: bitrate max/min/avg: 0/0/1000000 buffer size: 0 vbv_delay: -1
Stream mapping:
  Stream #0:0 -> #0:0 (rawvideo (native) -> h264 (libx264))
Press [q] to stop, [?] for help
frame=   14 fps=0.0 q=0.0 size=       0kB time=00:00:00.00 bitrate=N/A speed=   0x    frame=   28 fps= 23 q=0.0 size=       0kB time=00:00:00.00 bitrate=N/A speed=   0x    frame=   35 fps= 18 q=0.0 size=       0kB time=00:00:00.00 bitrate=N/A speed=   0x    frame=   45 fps= 17 q=0.0 size=       0kB time=00:00:00.00 bitrate=N/A speed=   0x    frame=   53 fps= 17 q=0.0 size=       0kB time=00:00:00.00 bitrate=N/A speed=   0x    frame=   63 fps= 17 q=0.0 size=       0kB time=00:00:00.00 bitrate=N/A speed=   0x    frame=   67 fps=9.9 q=0.0 size=       0kB time=00:00:00.00 bitrate=N/A speed=   0x    frame=   74 fps=9.6 q=57.0 size=       1kB time=00:00:00.02 bitrate= 280.4kbits/s speed=0.00274x    frame=   79 fps=9.3 q=67.0 size=       1kB time=00:00:00.12 bitrate=  48.7kbits/s speed=0.0142x    frame=   82 fps=8.9 q=69.0 size=       1kB time=00:00:00.18 bitrate=  32.5kbits/s speed=0.0197x    frame=   86 fps=8.7 q=69.0 size=       1kB time=00:00:00.26 bitrate=  22.6kbits/s speed=0.0263x    frame=   93 fps=8.8 q=69.0 size=       1kB time=00:00:00.40 bitrate=  14.7kbits/s speed=0.0378x    frame=   97 fps=8.7 q=69.0 size=       1kB time=00:00:00.48 bitrate=  12.2kbits/s speed=0.0431x    frame=  101 fps=8.6 q=69.0 size=       1kB time=00:00:00.56 bitrate=  10.5kbits/s speed=0.048x    frame=  106 fps=8.5 q=69.0 size=       1kB time=00:00:00.66 bitrate=   8.9kbits/s speed=0.053x    frame=  110 fps=8.5 q=69.0 size=       1kB time=00:00:00.74 bitrate=   7.9kbits/s speed=0.0571x    frame=  114 fps=8.4 q=69.0 size=       1kB time=00:00:00.82 bitrate=   7.2kbits/s speed=0.0608x    frame=  119 fps=8.5 q=69.0 size=       1kB time=00:00:00.92 bitrate=   6.4kbits/s speed=0.0656x    frame=  124 fps=8.4 q=69.0 size=       1kB time=00:00:01.02 bitrate=   5.8kbits/s speed=0.069x    frame=  127 fps=8.3 q=69.0 size=       1kB time=00:00:01.08 bitrate=   5.4kbits/s speed=0.0706x    frame=  131 fps=8.3 q=69.0 size=       1kB time=00:00:01.16 bitrate=   5.1kbits/s speed=0.0734x    frame=  136 fps=8.3 q=69.0 size=       1kB time=00:00:01.26 bitrate=   4.7kbits/s speed=0.0773x    frame=  141 fps=8.3 q=69.0 size=       1kB time=00:00:01.36 bitrate=   4.3kbits/s speed=0.0805x    frame=  146 fps=8.2 q=69.0 size=       1kB time=00:00:01.46 bitrate=   4.0kbits/s speed=0.0825x    frame=  151 fps=8.3 q=69.0 size=       1kB time=00:00:01.56 bitrate=   3.8kbits/s speed=0.0856x    frame=  155 fps=8.3 q=69.0 size=       1kB time=00:00:01.64 bitrate=   3.6kbits/s speed=0.0875x    frame=  160 fps=8.3 q=69.0 size=       1kB time=00:00:01.74 bitrate=   3.4kbits/s speed=0.0904x    frame=  164 fps=8.3 q=69.0 size=       1kB time=00:00:01.82 bitrate=   3.2kbits/s speed=0.0921x    frame=  168 fps=8.3 q=69.0 size=       1kB time=00:00:01.90 bitrate=   3.1kbits/s speed=0.0937x    frame=  170 fps=8.2 q=69.0 size=       1kB time=00:00:01.94 bitrate=   3.0kbits/s speed=0.0931x    frame=  176 fps=8.2 q=69.0 size=       1kB time=00:00:02.06 bitrate=   2.9kbits/s speed=0.0962x    frame=  181 fps=8.2 q=69.0 size=       1kB time=00:00:02.16 bitrate=   2.7kbits/s speed=0.0979x    frame=  184 fps=8.1 q=69.0 size=       1kB time=00:00:02.22 bitrate=   2.7kbits/s speed=0.0983x    frame=  188 fps=8.1 q=69.0 size=       1kB time=00:00:02.30 bitrate=   2.6kbits/s speed=0.0996x    frame=  191 fps=8.1 q=69.0 size=       1kB time=00:00:02.36 bitrate=   2.5kbits/s speed=0.0999x    frame=  198 fps=8.2 q=69.0 size=       1kB time=00:00:02.50 bitrate=   2.4kbits/s speed=0.103x    frame=  202 fps=8.1 q=69.0 size=       1kB time=00:00:02.58 bitrate=   2.3kbits/s speed=0.104x    frame=  206 fps=8.1 q=69.0 size=       1kB time=00:00:02.66 bitrate=   2.2kbits/s speed=0.104x    frame=  211 fps=8.1 q=69.0 size=       1kB time=00:00:02.76 bitrate=   2.1kbits/s speed=0.106x    frame=  216 fps=8.1 q=69.0 size=       1kB time=00:00:02.86 bitrate=   2.1kbits/s speed=0.108x    frame=  220 fps=8.1 q=69.0 size=       1kB time=00:00:02.94 bitrate=   2.0kbits/s speed=0.109x    frame=  225 fps=8.1 q=69.0 size=       1kB time=00:00:03.04 bitrate=   1.9kbits/s speed=0.11x    frame=  228 fps=8.1 q=69.0 size=       1kB time=00:00:03.10 bitrate=   1.9kbits/s speed=0.11x    frame=  232 fps=8.0 q=69.0 size=       1kB time=00:00:03.18 bitrate=   1.9kbits/s speed=0.11x    frame=  237 fps=8.1 q=69.0 size=       1kB time=00:00:03.28 bitrate=   1.8kbits/s speed=0.112x    frame=  242 fps=8.1 q=69.0 size=       1kB time=00:00:03.38 bitrate=   1.7kbits/s speed=0.113x    frame=  247 fps=8.1 q=69.0 size=       1kB time=00:00:03.48 bitrate=   1.7kbits/s speed=0.115x    frame=  251 fps=8.1 q=69.0 size=       1kB time=00:00:03.56 bitrate=   1.7kbits/s speed=0.114x    frame=  255 fps=8.1 q=69.0 size=       1kB time=00:00:03.64 bitrate=   1.6kbits/s speed=0.115x    frame=  261 fps=8.1 q=69.0 size=       1kB time=00:00:03.76 bitrate=   1.6kbits/s speed=0.117x    frame=  265 fps=8.1 q=69.0 size=       1kB time=00:00:03.84 bitrate=   1.5kbits/s speed=0.117x    frame=  270 fps=8.0 q=69.0 size=       1kB time=00:00:03.94 bitrate=   1.5kbits/s speed=0.117x    frame=  276 fps=8.1 q=69.0 size=       1kB time=00:00:04.06 bitrate=   1.4kbits/s speed=0.119x    frame=  280 fps=8.1 q=69.0 size=       1kB time=00:00:04.14 bitrate=   1.4kbits/s speed=0.119x    frame=  285 fps=8.0 q=69.0 size=       1kB time=00:00:04.24 bitrate=   1.4kbits/s speed=0.119x    frame=  290 fps=8.0 q=69.0 size=       1kB time=00:00:04.34 bitrate=   1.4kbits/s speed=0.12x    frame=  294 fps=8.0 q=69.0 size=       1kB time=00:00:04.42 bitrate=   1.3kbits/s speed=0.121x    frame=  299 fps=8.1 q=69.0 size=       1kB time=00:00:04.52 bitrate=   1.3kbits/s speed=0.122x    frame=  303 fps=8.1 q=69.0 size=       1kB time=00:00:04.60 bitrate=   1.3kbits/s speed=0.122x    frame=  307 fps=8.0 q=69.0 size=       1kB time=00:00:04.68 bitrate=   1.3kbits/s speed=0.123x    frame=  311 fps=8.0 q=69.0 size=       1kB time=00:00:04.76 bitrate=   1.2kbits/s speed=0.123x    frame=  316 fps=8.0 q=66.0 size=       1kB time=00:00:04.86 bitrate=   1.2kbits/s speed=0.123x    frame=  322 fps=8.0 q=69.0 size=     812kB time=00:00:04.98 bitrate=1336.0kbits/s speed=0.124x    frame=  328 fps=8.0 q=69.0 size=     812kB time=00:00:05.10 bitrate=1304.5kbits/s speed=0.125x    frame=  333 fps=8.0 q=69.0 size=     812kB time=00:00:05.20 bitrate=1279.4kbits/s speed=0.125x    frame=  337 fps=8.0 q=69.0 size=     812kB time=00:00:05.28 bitrate=1260.1kbits/s speed=0.125x    frame=  342 fps=8.0 q=69.0 size=     812kB time=00:00:05.38 bitrate=1236.6kbits/s speed=0.126x    frame=  345 fps=8.0 q=69.0 size=     812kB time=00:00:05.44 bitrate=1223.0kbits/s speed=0.126x    frame=  349 fps=8.0 q=69.0 size=     812kB time=00:00:05.52 bitrate=1205.3kbits/s speed=0.126x    frame=  352 fps=7.9 q=69.0 size=     812kB time=00:00:05.58 bitrate=1192.3kbits/s speed=0.126x    frame=  356 fps=7.9 q=69.0 size=     812kB time=00:00:05.66 bitrate=1175.5kbits/s speed=0.126x    frame=  360 fps=7.9 q=69.0 size=     812kB time=00:00:05.74 bitrate=1159.1kbits/s speed=0.126x    frame=  364 fps=7.9 q=69.0 size=     812kB time=00:00:05.82 bitrate=1143.2kbits/s speed=0.126x    frame=  369 fps=7.9 q=69.0 size=     812kB time=00:00:05.92 bitrate=1123.9kbits/s speed=0.127x    frame=  372 fps=7.9 q=69.0 size=     812kB time=00:00:05.98 bitrate=1112.6kbits/s speed=0.127x    frame=  378 fps=7.9 q=69.0 size=     812kB time=00:00:06.10 bitrate=1090.7kbits/s speed=0.128x    frame=  380 fps=7.9 q=69.0 size=     812kB time=00:00:06.14 bitrate=1083.6kbits/s speed=0.127x    frame=  385 fps=7.8 q=69.0 size=     812kB time=00:00:06.24 bitrate=1066.2kbits/s speed=0.126x    frame=  389 fps=7.8 q=69.0 size=     812kB time=00:00:06.32 bitrate=1052.7kbits/s speed=0.127x    frame=  393 fps=7.8 q=69.0 size=     812kB time=00:00:06.40 bitrate=1039.6kbits/s speed=0.126x    frame=  399 fps=7.8 q=69.0 size=     812kB time=00:00:06.52 bitrate=1020.5kbits/s speed=0.127x    frame=  402 fps=7.8 q=69.0 size=     812kB time=00:00:06.58 bitrate=1011.1kbits/s speed=0.127x    frame=  407 fps=7.8 q=69.0 size=     812kB time=00:00:06.68 bitrate= 996.0kbits/s speed=0.127x    frame=  410 fps=7.7 q=69.0 size=     812kB time=00:00:06.74 bitrate= 987.1kbits/s speed=0.127x    frame=  415 fps=7.8 q=69.0 size=     812kB time=00:00:06.84 bitrate= 972.7kbits/s speed=0.128x    frame=  418 fps=7.7 q=69.0 size=     812kB time=00:00:06.90 bitrate= 964.3kbits/s speed=0.127x    frame=  423 fps=7.7 q=69.0 size=     812kB time=00:00:07.00 bitrate= 950.5kbits/s speed=0.128x    frame=  427 fps=7.7 q=69.0 size=     812kB time=00:00:07.08 bitrate= 939.7kbits/s speed=0.128x    frame=  431 fps=7.7 q=69.0 size=     812kB time=00:00:07.16 bitrate= 929.3kbits/s speed=0.128x    frame=  435 fps=7.7 q=69.0 size=     812kB time=00:00:07.24 bitrate= 919.0kbits/s speed=0.128x    frame=  439 fps=7.7 q=69.0 size=     812kB time=00:00:07.32 bitrate= 908.9kbits/s speed=0.128x    frame=  444 fps=7.7 q=69.0 size=     812kB time=00:00:07.42 bitrate= 896.7kbits/s speed=0.129x    frame=  447 fps=7.7 q=69.0 size=     812kB time=00:00:07.48 bitrate= 889.5kbits/s speed=0.129x    frame=  451 fps=7.7 q=69.0 size=     812kB time=00:00:07.56 bitrate= 880.1kbits/s speed=0.129x    frame=  454 fps=7.7 q=69.0 size=     812kB time=00:00:07.62 bitrate= 873.2kbits/s speed=0.129x    frame=  458 fps=7.7 q=69.0 size=     812kB time=00:00:07.70 bitrate= 864.1kbits/s speed=0.129x    frame=  462 fps=7.6 q=69.0 size=     812kB time=00:00:07.78 bitrate= 855.2kbits/s speed=0.129x    frame=  466 fps=7.6 q=69.0 size=     812kB time=00:00:07.86 bitrate= 846.5kbits/s speed=0.129x    frame=  470 fps=7.6 q=69.0 size=     812kB time=00:00:07.94 bitrate= 838.0kbits/s speed=0.129x    frame=  474 fps=7.6 q=69.0 size=     812kB time=00:00:08.02 bitrate= 829.6kbits/s speed=0.129x    frame=  478 fps=7.6 q=69.0 size=     812kB time=00:00:08.10 bitrate= 821.4kbits/s speed=0.129x    frame=  484 fps=7.6 q=69.0 size=     812kB time=00:00:08.22 bitrate= 809.4kbits/s speed=0.13x    frame=  485 fps=7.6 q=69.0 size=     812kB time=00:00:08.24 bitrate= 807.5kbits/s speed=0.129x    frame=  491 fps=7.6 q=69.0 size=     812kB time=00:00:08.36 bitrate= 795.9kbits/s speed=0.129x    frame=  493 fps=7.6 q=69.0 size=     812kB time=00:00:08.40 bitrate= 792.1kbits/s speed=0.129x    frame=  497 fps=7.6 q=69.0 size=     812kB time=00:00:08.48 bitrate= 784.6kbits/s speed=0.129x    frame=  500 fps=7.5 q=69.0 size=     812kB time=00:00:08.54 bitrate= 779.1kbits/s speed=0.129x    frame=  500 fps=6.6 q=-1.0 Lsize=    1520kB time=00:00:09.94 bitrate=1252.9kbits/s speed=0.132x    
video:1516kB audio:0kB subtitle:0kB other streams:0kB global headers:0kB muxing overhead: 0.278511%
bench: utime=252.764s
bench: maxrss=2496020kB
[libx264 @ 0x2e631c0] frame I:2     Avg QP:50.32  size: 33269
[libx264 @ 0x2e631c0] frame P:134   Avg QP:51.00  size: 10219
[libx264 @ 0x2e631c0] frame B:364   Avg QP:51.00  size:   318
[libx264 @ 0x2e631c0] consecutive B-frames:  0.4%  2.8% 14.4% 82.4%
[libx264 @ 0x2e631c0] mb I  I16..4: 36.2% 63.7%  0.1%
[libx264 @ 0x2e631c0] mb P  I16..4: 19.2%  0.6%  0.0%  P16..4: 13.8%  0.0%  0.1%  0.0%  0.0%    skip:66.3%
[libx264 @ 0x2e631c0] mb B  I16..4:  0.0%  0.0%  0.0%  B16..8:  0.4%  0.0%  0.0%  direct: 0.0%  skip:99.6%  L0:20.4% L1:79.5% BI: 0.1%
[libx264 @ 0x2e631c0] final ratefactor: 62.46
[libx264 @ 0x2e631c0] 8x8 transform intra:7.2% inter:98.5%
[libx264 @ 0x2e631c0] direct mvs  spatial:99.2% temporal:0.8%
[libx264 @ 0x2e631c0] coded y,uvDC,uvAC intra: 0.5% 1.5% 0.2% inter: 0.0% 0.0% 0.0%
[libx264 @ 0x2e631c0] i16 v,h,dc,p: 95%  4%  0%  0%
[libx264 @ 0x2e631c0] i8 v,h,dc,ddl,ddr,vr,hd,vl,hu:  9%  3% 73%  3%  3%  2%  3%  2%  2%
[libx264 @ 0x2e631c0] i4 v,h,dc,ddl,ddr,vr,hd,vl,hu:  5%  3%  6% 24% 23% 13%  9%  6% 10%
[libx264 @ 0x2e631c0] i8c dc,h,v,p: 99%  1%  0%  0%
[libx264 @ 0x2e631c0] Weighted P-Frames: Y:0.7% UV:0.0%
[libx264 @ 0x2e631c0] ref P L0: 43.5%  1.0% 16.6%  9.1%  6.6%  9.3%  8.6%  5.3%  0.0%
[libx264 @ 0x2e631c0] ref B L0: 92.4%  6.6%  0.6%  0.2%  0.1%  0.1%  0.0%
[libx264 @ 0x2e631c0] ref B L1: 98.1%  1.9%
[libx264 @ 0x2e631c0] kb/s:1241.48
